<mxfile host="app.diagrams.net" modified="2023-10-17T04:50:48.942Z" agent="Mozilla/5.0 (Windows NT 10.0; Win64; x64; rv:109.0) Gecko/20100101 Firefox/118.0" etag="s_9sgFVNjrab3ysrKA3w" version="22.0.4" type="github">
  <diagram name="Halaman-1" id="ZkVeHClUX6G_gRN_-uem">
    <mxGraphModel dx="954" dy="594" grid="1" gridSize="10" guides="1" tooltips="1" connect="1" arrows="1" fold="1" page="1" pageScale="1" pageWidth="827" pageHeight="1169" math="0" shadow="0">
      <root>
        <mxCell id="0" />
        <mxCell id="1" parent="0" />
        <mxCell id="mzdWFRPxNilNfK5Q4FHG-2" style="edgeStyle=orthogonalEdgeStyle;rounded=0;orthogonalLoop=1;jettySize=auto;html=1;exitX=0.5;exitY=1;exitDx=0;exitDy=0;exitPerimeter=0;" parent="1" source="mzdWFRPxNilNfK5Q4FHG-1" edge="1">
          <mxGeometry relative="1" as="geometry">
            <mxPoint x="414" y="120" as="targetPoint" />
          </mxGeometry>
        </mxCell>
        <mxCell id="mzdWFRPxNilNfK5Q4FHG-1" value="start" style="strokeWidth=2;html=1;shape=mxgraph.flowchart.terminator;whiteSpace=wrap;" parent="1" vertex="1">
          <mxGeometry x="340" y="10" width="150" height="60" as="geometry" />
        </mxCell>
        <mxCell id="mzdWFRPxNilNfK5Q4FHG-5" style="edgeStyle=orthogonalEdgeStyle;rounded=0;orthogonalLoop=1;jettySize=auto;html=1;exitX=0.5;exitY=1;exitDx=0;exitDy=0;" parent="1" source="mzdWFRPxNilNfK5Q4FHG-4" edge="1">
          <mxGeometry relative="1" as="geometry">
            <mxPoint x="415" y="230" as="targetPoint" />
          </mxGeometry>
        </mxCell>
        <mxCell id="mzdWFRPxNilNfK5Q4FHG-4" value="dekorasi variabel bilangan " style="rounded=1;whiteSpace=wrap;html=1;" parent="1" vertex="1">
          <mxGeometry x="300" y="120" width="230" height="60" as="geometry" />
        </mxCell>
        <mxCell id="mzdWFRPxNilNfK5Q4FHG-7" style="edgeStyle=orthogonalEdgeStyle;rounded=0;orthogonalLoop=1;jettySize=auto;html=1;exitX=0.5;exitY=1;exitDx=0;exitDy=0;exitPerimeter=0;" parent="1" source="mzdWFRPxNilNfK5Q4FHG-6" edge="1">
          <mxGeometry relative="1" as="geometry">
            <mxPoint x="414" y="390" as="targetPoint" />
          </mxGeometry>
        </mxCell>
        <mxCell id="mzdWFRPxNilNfK5Q4FHG-6" value="masukan nilai bilangan " style="strokeWidth=2;html=1;shape=mxgraph.flowchart.decision;whiteSpace=wrap;" parent="1" vertex="1">
          <mxGeometry x="249" y="230" width="330" height="100" as="geometry" />
        </mxCell>
        <mxCell id="mzdWFRPxNilNfK5Q4FHG-12" value="ganjil" style="strokeWidth=2;html=1;shape=mxgraph.flowchart.decision;whiteSpace=wrap;" parent="1" vertex="1">
          <mxGeometry x="640" y="595" width="100" height="110" as="geometry" />
        </mxCell>
        <mxCell id="mzdWFRPxNilNfK5Q4FHG-20" style="edgeStyle=orthogonalEdgeStyle;rounded=0;orthogonalLoop=1;jettySize=auto;html=1;exitX=0.5;exitY=1;exitDx=0;exitDy=0;" parent="1" source="mzdWFRPxNilNfK5Q4FHG-14" target="mzdWFRPxNilNfK5Q4FHG-21" edge="1">
          <mxGeometry relative="1" as="geometry">
            <mxPoint x="430" y="640" as="targetPoint" />
          </mxGeometry>
        </mxCell>
        <mxCell id="mzdWFRPxNilNfK5Q4FHG-14" value="genap" style="rounded=1;whiteSpace=wrap;html=1;absoluteArcSize=1;arcSize=14;strokeWidth=2;" parent="1" vertex="1">
          <mxGeometry x="340" y="485" width="180" height="100" as="geometry" />
        </mxCell>
        <mxCell id="mzdWFRPxNilNfK5Q4FHG-23" value="" style="edgeStyle=orthogonalEdgeStyle;rounded=0;orthogonalLoop=1;jettySize=auto;html=1;" parent="1" source="mzdWFRPxNilNfK5Q4FHG-15" target="mzdWFRPxNilNfK5Q4FHG-12" edge="1">
          <mxGeometry relative="1" as="geometry" />
        </mxCell>
        <mxCell id="mzdWFRPxNilNfK5Q4FHG-15" value="bilangan mod 4%=0" style="shape=parallelogram;html=1;strokeWidth=2;perimeter=parallelogramPerimeter;whiteSpace=wrap;rounded=1;arcSize=12;size=0.23;" parent="1" vertex="1">
          <mxGeometry x="270" y="390" width="260" height="60" as="geometry" />
        </mxCell>
        <mxCell id="mzdWFRPxNilNfK5Q4FHG-19" style="edgeStyle=orthogonalEdgeStyle;rounded=0;orthogonalLoop=1;jettySize=auto;html=1;exitX=0.5;exitY=1;exitDx=0;exitDy=0;entryX=0.422;entryY=-0.03;entryDx=0;entryDy=0;entryPerimeter=0;" parent="1" source="mzdWFRPxNilNfK5Q4FHG-15" target="mzdWFRPxNilNfK5Q4FHG-14" edge="1">
          <mxGeometry relative="1" as="geometry" />
        </mxCell>
        <mxCell id="mzdWFRPxNilNfK5Q4FHG-21" value="selesai" style="strokeWidth=2;html=1;shape=mxgraph.flowchart.terminator;whiteSpace=wrap;" parent="1" vertex="1">
          <mxGeometry x="350" y="610" width="160" height="80" as="geometry" />
        </mxCell>
        <mxCell id="mzdWFRPxNilNfK5Q4FHG-29" style="edgeStyle=orthogonalEdgeStyle;rounded=0;orthogonalLoop=1;jettySize=auto;html=1;exitX=0;exitY=0.5;exitDx=0;exitDy=0;exitPerimeter=0;entryX=1;entryY=0.5;entryDx=0;entryDy=0;entryPerimeter=0;" parent="1" source="mzdWFRPxNilNfK5Q4FHG-12" target="mzdWFRPxNilNfK5Q4FHG-21" edge="1">
          <mxGeometry relative="1" as="geometry" />
        </mxCell>
        <mxCell id="mzdWFRPxNilNfK5Q4FHG-30" value="tidak" style="text;html=1;align=center;verticalAlign=middle;resizable=0;points=[];autosize=1;strokeColor=none;fillColor=none;" parent="1" vertex="1">
          <mxGeometry x="545" y="378" width="50" height="30" as="geometry" />
        </mxCell>
        <mxCell id="mzdWFRPxNilNfK5Q4FHG-31" value="ya" style="text;html=1;align=center;verticalAlign=middle;resizable=0;points=[];autosize=1;strokeColor=none;fillColor=none;" parent="1" vertex="1">
          <mxGeometry x="480" y="448" width="40" height="30" as="geometry" />
        </mxCell>
      </root>
    </mxGraphModel>
  </diagram>
</mxfile>
